<svg width="356" height="290" viewBox="0 0 356 290" fill="none" xmlns="http://www.w3.org/2000/svg">
<path d="M59.3333 79.0909C43.0167 79.0909 29.6667 67.2273 29.6667 52.7273C29.6667 38.2273 43.0167 26.3636 59.3333 26.3636H296.667V52.7273H326.333V0H59.3333C26.7 0 0 23.7273 0 52.7273V224.091C0 261 32.6333 290 74.1667 290H356V79.0909H59.3333ZM326.333 263.636H74.1667C48.95 263.636 29.6667 246.5 29.6667 224.091V97.5454C38.5667 102.818 48.95 105.455 59.3333 105.455H326.333V263.636ZM237.333 210.909C253.65 210.909 267 199.045 267 184.545C267 170.045 253.65 158.182 237.333 158.182C221.017 158.182 207.667 170.045 207.667 184.545C207.667 199.045 221.017 210.909 237.333 210.909Z" fill="white"/>
</svg>
